<svg xmlns="http://www.w3.org/2000/svg" xmlns:xlink="http://www.w3.org/1999/xlink" viewBox="0 0 1920 53"><defs><style>.cls-1{fill:none;}.cls-2{clip-path:url(#clip-path);}.cls-3{fill:url(#linear-gradient);}.cls-4{fill:url(#linear-gradient-2);}.cls-5{fill-rule:evenodd;fill:url(#linear-gradient-3);}</style><clipPath id="clip-path"><rect class="cls-1" width="1920" height="53"/></clipPath><linearGradient id="linear-gradient" x1="1152.8" y1="43.5" x2="1921" y2="43.5" gradientTransform="matrix(1, 0, 0, -1, 0, 70)" gradientUnits="userSpaceOnUse"><stop offset="0" stop-color="#15becf" stop-opacity="0"/><stop offset="1" stop-color="#15becf"/></linearGradient><linearGradient id="linear-gradient-2" x1="2305.58" x2="3073.78" gradientTransform="translate(3073.78 70) rotate(180)" xlink:href="#linear-gradient"/><linearGradient id="linear-gradient-3" x1="-1" y1="43.5" x2="1920.5" y2="43.5" gradientTransform="matrix(1, 0, 0, -1, 0, 70)" gradientUnits="userSpaceOnUse"><stop offset="0" stop-color="#5c708e"/><stop offset="0.23" stop-color="#c8d6f3"/><stop offset="0.5" stop-color="#5c708e"/><stop offset="0.5" stop-color="#c8d6f3"/><stop offset="0.77" stop-color="#c8d6f3"/><stop offset="1" stop-color="#5c708e"/></linearGradient></defs><g id="Layer_2" data-name="Layer 2"><g id="Layer_1-2" data-name="Layer 1"><g class="cls-2"><polygon class="cls-3" points="1921 53 1182.4 53 1152.8 0 1920.2 0 1920.4 10.7 1921 53"/><polygon class="cls-4" points="0 53 738.6 53 768.2 0 0.8 0 0.6 10.7 0 53"/><polygon class="cls-5" points="1920.5 0 1920.4 10.7 1920 53 1892.1 30.5 1206 31 1191.5 11 732 11 716.5 31 28 31 -1 53 -0.5 0 1920.5 0"/></g></g></g></svg>